<mxfile host="Electron" modified="2023-12-04T06:55:00.400Z" agent="Mozilla/5.0 (Windows NT 10.0; Win64; x64) AppleWebKit/537.36 (KHTML, like Gecko) draw.io/22.1.2 Chrome/114.0.5735.289 Electron/25.9.4 Safari/537.36" etag="0dIktyrUTkwzeurI8uMf" version="22.1.2" type="device">
  <diagram name="Page-1" id="BeGUvObTn5PvON0YrpUM">
    <mxGraphModel dx="2058" dy="1180" grid="1" gridSize="10" guides="1" tooltips="1" connect="1" arrows="1" fold="1" page="1" pageScale="1" pageWidth="850" pageHeight="1100" math="0" shadow="0">
      <root>
        <mxCell id="0" />
        <mxCell id="1" parent="0" />
        <mxCell id="kRU5yt_YMfP87aYFLwK0-20" style="edgeStyle=orthogonalEdgeStyle;rounded=0;orthogonalLoop=1;jettySize=auto;html=1;strokeWidth=3;" parent="1" source="kRU5yt_YMfP87aYFLwK0-12" target="kRU5yt_YMfP87aYFLwK0-18" edge="1">
          <mxGeometry relative="1" as="geometry" />
        </mxCell>
        <mxCell id="kRU5yt_YMfP87aYFLwK0-12" value="" style="rounded=0;whiteSpace=wrap;html=1;fillColor=#f8cecc;strokeColor=#b85450;" parent="1" vertex="1">
          <mxGeometry x="730.24" y="320" width="219.77" height="430" as="geometry" />
        </mxCell>
        <mxCell id="kRU5yt_YMfP87aYFLwK0-16" style="edgeStyle=orthogonalEdgeStyle;rounded=0;orthogonalLoop=1;jettySize=auto;html=1;strokeWidth=4;" parent="1" source="kRU5yt_YMfP87aYFLwK0-13" target="kRU5yt_YMfP87aYFLwK0-12" edge="1">
          <mxGeometry relative="1" as="geometry" />
        </mxCell>
        <mxCell id="kRU5yt_YMfP87aYFLwK0-13" value="" style="rounded=0;whiteSpace=wrap;html=1;fillColor=#ffe6cc;strokeColor=#d79b00;" parent="1" vertex="1">
          <mxGeometry x="380" y="320" width="200" height="430" as="geometry" />
        </mxCell>
        <mxCell id="kRU5yt_YMfP87aYFLwK0-15" style="edgeStyle=orthogonalEdgeStyle;rounded=0;orthogonalLoop=1;jettySize=auto;html=1;strokeWidth=4;" parent="1" source="kRU5yt_YMfP87aYFLwK0-9" target="kRU5yt_YMfP87aYFLwK0-13" edge="1">
          <mxGeometry relative="1" as="geometry" />
        </mxCell>
        <mxCell id="kRU5yt_YMfP87aYFLwK0-9" value="" style="rounded=0;whiteSpace=wrap;html=1;fillColor=#fff2cc;strokeColor=#d6b656;" parent="1" vertex="1">
          <mxGeometry x="30" y="320" width="200" height="430" as="geometry" />
        </mxCell>
        <mxCell id="kRU5yt_YMfP87aYFLwK0-1" value="" style="sketch=0;outlineConnect=0;fontColor=#232F3E;gradientColor=none;fillColor=#232F3D;strokeColor=none;dashed=0;verticalLabelPosition=bottom;verticalAlign=top;align=center;html=1;fontSize=12;fontStyle=0;aspect=fixed;pointerEvents=1;shape=mxgraph.aws4.source_code;" parent="1" vertex="1">
          <mxGeometry x="90" y="473" width="57" height="78" as="geometry" />
        </mxCell>
        <mxCell id="kRU5yt_YMfP87aYFLwK0-2" value="" style="image;sketch=0;aspect=fixed;html=1;points=[];align=center;fontSize=12;image=img/lib/mscae/Docker.svg;" parent="1" vertex="1">
          <mxGeometry x="418.41" y="449" width="123.17" height="101" as="geometry" />
        </mxCell>
        <mxCell id="kRU5yt_YMfP87aYFLwK0-3" value="" style="shape=image;imageAspect=0;aspect=fixed;verticalLabelPosition=bottom;verticalAlign=top;fontSize=24;image=https://jfrog.com/wp-content/uploads/2017/12/artifactory.png;" parent="1" vertex="1">
          <mxGeometry x="719.89" y="369" width="240.46" height="80" as="geometry" />
        </mxCell>
        <mxCell id="kRU5yt_YMfP87aYFLwK0-4" value="" style="sketch=0;aspect=fixed;html=1;points=[];align=center;image;fontSize=12;image=img/lib/mscae/Docker.svg;fontColor=#FFFFFF;fillColor=#000000;" parent="1" vertex="1">
          <mxGeometry x="784.02" y="570" width="121.95" height="100" as="geometry" />
        </mxCell>
        <mxCell id="kRU5yt_YMfP87aYFLwK0-5" value="&lt;font style=&quot;font-size: 24px&quot;&gt;Docker&amp;nbsp; &amp;nbsp; &amp;nbsp; &amp;nbsp;&lt;br&gt;&lt;/font&gt;" style="rounded=0;whiteSpace=wrap;html=1;fillColor=#000000;strokeColor=#0e8088;fontColor=#FFFFFF;movable=1;resizable=1;rotatable=1;deletable=1;editable=1;connectable=1;" parent="1" vertex="1">
          <mxGeometry x="780" y="675" width="130" height="30" as="geometry" />
        </mxCell>
        <mxCell id="kRU5yt_YMfP87aYFLwK0-6" value="&lt;font style=&quot;font-size: 24px&quot;&gt;hub&lt;br&gt;&lt;/font&gt;" style="rounded=0;whiteSpace=wrap;html=1;fillColor=#f0a30a;strokeColor=#BD7000;fontColor=#000000;movable=1;resizable=1;rotatable=1;deletable=1;editable=1;connectable=1;" parent="1" vertex="1">
          <mxGeometry x="863" y="680" width="40" height="20" as="geometry" />
        </mxCell>
        <mxCell id="kRU5yt_YMfP87aYFLwK0-7" value="&lt;font style=&quot;font-size: 24px&quot;&gt;Docker&amp;nbsp; &amp;nbsp; &amp;nbsp; &amp;nbsp;&lt;br&gt;&lt;/font&gt;" style="rounded=0;whiteSpace=wrap;html=1;fillColor=#000000;strokeColor=#0e8088;fontColor=#FFFFFF;movable=1;resizable=1;rotatable=1;deletable=1;editable=1;connectable=1;" parent="1" vertex="1">
          <mxGeometry x="418.41" y="560" width="130" height="30" as="geometry" />
        </mxCell>
        <mxCell id="kRU5yt_YMfP87aYFLwK0-8" value="&lt;font style=&quot;font-size: 24px&quot;&gt;file&lt;br&gt;&lt;/font&gt;" style="rounded=0;whiteSpace=wrap;html=1;fillColor=#f0a30a;strokeColor=#BD7000;fontColor=#000000;movable=1;resizable=1;rotatable=1;deletable=1;editable=1;connectable=1;" parent="1" vertex="1">
          <mxGeometry x="501.41" y="565" width="40" height="20" as="geometry" />
        </mxCell>
        <mxCell id="kRU5yt_YMfP87aYFLwK0-18" value="" style="rounded=0;whiteSpace=wrap;html=1;fillColor=#fff2cc;strokeColor=#d6b656;" parent="1" vertex="1">
          <mxGeometry x="1075" y="320" width="200" height="430" as="geometry" />
        </mxCell>
        <mxCell id="kRU5yt_YMfP87aYFLwK0-19" value="" style="image;sketch=0;aspect=fixed;html=1;points=[];align=center;fontSize=12;image=img/lib/mscae/Kubernetes.svg;" parent="1" vertex="1">
          <mxGeometry x="1115" y="450" width="135.42" height="130" as="geometry" />
        </mxCell>
      </root>
    </mxGraphModel>
  </diagram>
</mxfile>
